<svg width="20.000000" height="20.000000" viewBox="0 0 20 20" fill="none" xmlns="http://www.w3.org/2000/svg" xmlns:xlink="http://www.w3.org/1999/xlink">
	<desc>
			Created with Pixso.
	</desc>
	<defs>
		<clipPath id="clip1_224">
			<rect id="svg-sprite-global__cf-email" rx="-0.500000" width="19.000000" height="19.000000" transform="translate(0.500000 0.500000)" fill="white" fill-opacity="0"/>
		</clipPath>
		<clipPath id="clip1_223">
			<rect id="cu-login-form → Form - Login → SVG" rx="-0.500000" width="19.000000" height="19.000000" transform="translate(0.500000 0.500000)" fill="white" fill-opacity="0"/>
		</clipPath>
	</defs>
	<g clip-path="url(#clip1_223)">
		<rect id="svg-sprite-global__cf-email" rx="-0.500000" width="19.000000" height="19.000000" transform="translate(0.500000 0.500000)" fill="#FFFFFF" fill-opacity="0"/>
		<g clip-path="url(#clip1_224)">
			<path id="Vector" d="M5 5L15 5C15.29 5 15.58 5.07 15.84 5.23C16.1 5.38 16.31 5.59 16.45 5.85C16.35 5.88 16.25 5.93 16.16 6L10 10.62L3.83 6C3.74 5.93 3.64 5.88 3.54 5.85C3.68 5.59 3.89 5.38 4.15 5.23C4.41 5.07 4.7 5 5 5ZM3.33 7.7L3.33 13.33C3.33 13.77 3.5 14.19 3.82 14.51C4.13 14.82 4.55 15 5 15L15 15C15.44 15 15.86 14.82 16.17 14.51C16.49 14.19 16.66 13.77 16.66 13.33L16.66 7.7L10.5 12.33C10.35 12.44 10.18 12.5 10 12.5C9.81 12.5 9.64 12.44 9.5 12.33L3.33 7.7ZM1.66 6.66C1.66 5.78 2.01 4.93 2.64 4.3C3.26 3.68 4.11 3.33 5 3.33L15 3.33C15.88 3.33 16.73 3.68 17.35 4.3C17.98 4.93 18.33 5.78 18.33 6.66L18.33 13.33C18.33 14.21 17.98 15.06 17.35 15.69C16.73 16.31 15.88 16.66 15 16.66L5 16.66C4.11 16.66 3.26 16.31 2.64 15.69C2.01 15.06 1.66 14.21 1.66 13.33L1.66 6.66Z" fill="#B9BEC7" fill-opacity="1.000000" fill-rule="evenodd"/>
		</g>
	</g>
</svg>
