<svg width="18.000000" height="18.000000" viewBox="0 0 18 18" fill="none" xmlns="http://www.w3.org/2000/svg" xmlns:xlink="http://www.w3.org/1999/xlink">
	<desc>
			Created with Pixso.
	</desc>
	<defs>
		<clipPath id="clip1_244">
			<rect id="SVG" rx="-0.500000" width="17.000000" height="17.000000" transform="translate(0.500000 0.500000)" fill="white" fill-opacity="0"/>
		</clipPath>
	</defs>
	<g clip-path="url(#clip1_244)">
		<path id="Vector" d="M9 3.56C10.32 3.56 11.51 4.02 12.45 4.91L15.02 2.34C13.46 0.89 11.42 0 9 0C5.48 0 2.44 2.01 0.95 4.95L3.95 7.27C4.66 5.14 6.65 3.56 9 3.56Z" fill="#EA4335" fill-opacity="1.000000" fill-rule="nonzero"/>
		<path id="Vector" d="M17.61 9.2C17.61 8.61 17.56 8.04 17.47 7.5L9 7.5L9 10.88L13.85 10.88C13.63 11.99 13 12.93 12.06 13.57L14.95 15.82C16.64 14.25 17.61 11.93 17.61 9.2Z" fill="#4285F4" fill-opacity="1.000000" fill-rule="nonzero"/>
		<path id="Vector" d="M3.94 10.72C3.76 10.17 3.66 9.59 3.66 9C3.66 8.4 3.76 7.82 3.94 7.27L0.95 4.95C0.34 6.17 0 7.54 0 9C0 10.45 0.34 11.82 0.95 13.04L3.94 10.72Z" fill="#FBBC05" fill-opacity="1.000000" fill-rule="nonzero"/>
		<path id="Vector" d="M9 18C11.42 18 13.47 17.2 14.95 15.82L12.05 13.57C11.25 14.11 10.21 14.43 9 14.43C6.65 14.43 4.66 12.85 3.94 10.71L0.95 13.03C2.44 15.98 5.48 18 9 18Z" fill="#34A853" fill-opacity="1.000000" fill-rule="nonzero"/>
	</g>
</svg>
