<svg width="20.000000" height="20.000000" viewBox="0 0 20 20" fill="none" xmlns="http://www.w3.org/2000/svg" xmlns:xlink="http://www.w3.org/1999/xlink">
	<desc>
			Created with Pixso.
	</desc>
	<defs>
		<clipPath id="clip1_240">
			<rect id="svg-sprite-global__lock" rx="-0.500000" width="19.000000" height="19.000000" transform="translate(0.500000 0.500000)" fill="white" fill-opacity="0"/>
		</clipPath>
		<clipPath id="clip1_239">
			<rect id="cu-login-form → Form - Login → SVG" rx="-0.500000" width="19.000000" height="19.000000" transform="translate(0.500000 0.500000)" fill="white" fill-opacity="0"/>
		</clipPath>
	</defs>
	<g clip-path="url(#clip1_239)">
		<rect id="svg-sprite-global__lock" rx="-0.500000" width="19.000000" height="19.000000" transform="translate(0.500000 0.500000)" fill="#FFFFFF" fill-opacity="0"/>
		<g clip-path="url(#clip1_240)">
			<path id="Vector" d="M5.83 5.83C5.83 4.72 6.27 3.66 7.05 2.88C7.83 2.1 8.89 1.66 10 1.66C11.1 1.66 12.16 2.1 12.94 2.88C13.72 3.66 14.16 4.72 14.16 5.83L14.16 7.5C14.83 7.5 15.46 7.76 15.93 8.23C16.4 8.7 16.66 9.33 16.66 10L16.66 14.3C16.66 14.97 16.4 15.6 15.93 16.07L14.41 17.6C13.94 18.07 13.3 18.33 12.64 18.33L7.35 18.33C6.69 18.33 6.05 18.06 5.59 17.6L4.06 16.07C3.59 15.6 3.33 14.97 3.33 14.3L3.33 10C3.33 9.33 3.59 8.7 4.06 8.23C4.53 7.76 5.17 7.5 5.83 7.5L5.83 5.83ZM5.83 9.16C5.61 9.16 5.4 9.25 5.24 9.41C5.08 9.56 5 9.77 5 10L5 14.3C5 14.53 5.08 14.74 5.24 14.89L6.76 16.42C6.92 16.57 7.13 16.66 7.35 16.66L12.64 16.66C12.86 16.66 13.07 16.57 13.23 16.42L14.75 14.89C14.91 14.74 15 14.53 15 14.3L15 10C15 9.77 14.91 9.56 14.75 9.41C14.59 9.25 14.38 9.16 14.16 9.16L5.83 9.16ZM12.5 7.5L7.5 7.5L7.5 5.83C7.5 5.17 7.76 4.53 8.23 4.06C8.7 3.59 9.33 3.33 10 3.33C10.66 3.33 11.29 3.59 11.76 4.06C12.23 4.53 12.5 5.17 12.5 5.83L12.5 7.5ZM10 11.66C10.22 11.66 10.43 11.75 10.58 11.91C10.74 12.06 10.83 12.27 10.83 12.5L10.83 14.16C10.83 14.38 10.74 14.59 10.58 14.75C10.43 14.91 10.22 15 10 15C9.77 15 9.56 14.91 9.41 14.75C9.25 14.59 9.16 14.38 9.16 14.16L9.16 12.5C9.16 12.27 9.25 12.06 9.41 11.91C9.56 11.75 9.77 11.66 10 11.66Z" fill="#B9BEC7" fill-opacity="1.000000" fill-rule="evenodd"/>
		</g>
	</g>
</svg>
